<svg width="128" height="128" xmlns="http://www.w3.org/2000/svg">

 <g>
  <title>background</title>
  <rect fill="none" id="canvas_background" height="402" width="582" y="-1" x="-1"/>
 </g>
 <g>
  <title>Layer 1</title>
  <ellipse ry="60.434531" rx="60.434531" id="svg_5" cy="62.242759" cx="64.869557" stroke-opacity="null" stroke-width="null" stroke="null" fill="#191919"/>
  <g stroke="null" id="svg_4">
   <path stroke="null" fill="#ffffff" id="svg_2" d="m39.38954,44.548536c0,14.571983 11.922531,26.494514 26.494514,26.494514s26.494514,-11.922531 26.494514,-26.494514s-11.922531,-26.494514 -26.494514,-26.494514s-26.494514,11.922531 -26.494514,26.494514zm46.755025,0c0,11.143281 -9.11723,20.260511 -20.260511,20.260511s-20.260511,-9.11723 -20.260511,-20.260511s9.11723,-20.260511 20.260511,-20.260511s20.260511,9.11723 20.260511,20.260511z"/>
   <path stroke="null" fill="#ffffff" id="svg_3" d="m35.025737,99.407765c8.260054,-8.260054 19.16956,-12.779707 30.858317,-12.779707s22.598262,4.519652 30.858317,12.779707l4.441727,-4.441727c-9.42893,-9.351005 -21.974862,-14.571983 -35.300044,-14.571983s-25.871114,5.220978 -35.300044,14.571983l4.441727,4.441727z"/>
  </g>
 </g>
</svg>